<svg xmlns="http://www.w3.org/2000/svg" width="125" height="36" fill="none"><path fill="#FFA920" d="M38 14.713v14.713H23.104l-8.208-8.107V36L0 21.287V6.574h14.896l8.208 8.107V0z"/><path fill="#FCFBFA" d="M53.52 25 48.4 11h2.78l3.92 11.34L59.06 11h2.74l-5.12 14zm12.385.24q-1.52 0-2.68-.64a4.8 4.8 0 0 1-1.82-1.8q-.66-1.16-.66-2.68 0-1.54.64-2.74.66-1.2 1.82-1.86 1.16-.68 2.7-.68 1.48 0 2.6.64a4.55 4.55 0 0 1 1.74 1.74q.64 1.1.64 2.5v.44q0 .24-.04.5h-8.22v-1.6h5.64q-.06-.96-.72-1.54t-1.62-.58q-.72 0-1.32.32t-.96.96q-.34.62-.34 1.6v.56q0 .84.34 1.46t.92.96q.58.32 1.32.32.76 0 1.28-.34t.8-.9h2.64q-.28.94-.94 1.72-.64.76-1.6 1.2t-2.16.44m6.333-.24V10.6h2.6V25zm9.178.24q-1.5 0-2.7-.66a4.94 4.94 0 0 1-1.9-1.84q-.7-1.18-.7-2.7 0-1.54.7-2.7.7-1.18 1.9-1.84 1.221-.66 2.7-.66 1.5 0 2.7.66t1.9 1.84q.7 1.16.7 2.7 0 1.52-.7 2.7t-1.9 1.84-2.7.66m0-2.24q.72 0 1.32-.32.6-.34.94-1 .36-.66.36-1.64t-.36-1.64-.96-.98a2.5 2.5 0 0 0-1.28-.34q-.72 0-1.32.34t-.96 1q-.36.64-.36 1.62t.34 1.64q.36.66.96 1 .6.32 1.32.32m11.944 2.24q-.98 0-1.94-.26a5.7 5.7 0 0 1-1.76-.86q-.8-.6-1.34-1.52-.52-.94-.62-2.24h2.4q.159 1.02.66 1.6.52.58 1.22.82.72.22 1.42.22.78 0 1.38-.24.62-.24.96-.68.36-.46.36-1.06 0-.62-.34-1.1-.34-.5-1.46-.7l-2.38-.44q-1.72-.32-2.7-1.36a3.6 3.6 0 0 1-.96-2.5q0-1.32.66-2.24t1.78-1.42 2.46-.5q1.4 0 2.52.48a4.2 4.2 0 0 1 1.82 1.48q.699.98.84 2.54H95.9q-.12-.9-.54-1.38a2.1 2.1 0 0 0-.98-.7q-.56-.2-1.16-.2-.56 0-1.16.18t-1 .6q-.4.4-.4 1.1 0 .6.44 1.08.46.46 1.46.64l2.2.4q1.76.32 2.76 1.26 1.02.92 1.02 2.7 0 1.06-.46 1.86-.44.78-1.18 1.34a5.5 5.5 0 0 1-1.66.82 6.4 6.4 0 0 1-1.88.28m11.435 0q-1.5 0-2.7-.66a4.94 4.94 0 0 1-1.9-1.84q-.7-1.18-.7-2.7 0-1.54.7-2.7.7-1.18 1.9-1.84 1.22-.66 2.7-.66 1.5 0 2.7.66t1.9 1.84q.7 1.16.7 2.7 0 1.52-.7 2.7t-1.9 1.84-2.7.66m0-2.24q.72 0 1.32-.32.6-.34.94-1 .36-.66.36-1.64t-.36-1.64-.96-.98a2.5 2.5 0 0 0-1.28-.34q-.72 0-1.32.34t-.96 1q-.36.64-.36 1.62t.34 1.64q.36.66.96 1 .6.32 1.32.32m7.304 2V13.8q0-1.38.32-2.06a1.62 1.62 0 0 1 1.04-.92q.74-.22 1.94-.22h1.22v2.22h-.72q-.72 0-.96.22t-.24.92V25zm-1.36-7.74v-2.18h5.88v2.18zM122.098 25q-1 0-1.7-.22a1.78 1.78 0 0 1-1.02-.9q-.34-.68-.34-1.94v-4.68h-1.7v-2.18h1.7v-2.66h2.6v2.66h2.5v2.18h-2.5v4.36q0 .5.1.76.1.24.38.32t.76.08h1.2V25z"/></svg>